<?xml version="1.0" encoding="iso-8859-1"?>
<!-- Generator: Adobe Illustrator 21.0.0, SVG Export Plug-In . SVG Version: 6.00 Build 0)  -->
<svg xmlns="http://www.w3.org/2000/svg" xmlns:xlink="http://www.w3.org/1999/xlink" version="1.1" id="Capa_1" x="0px" y="0px" viewBox="0 0 512 512" style="enable-background:new 0 0 512 512;" xml:space="preserve" width="512" height="512">
<g>
	<g>
		<g>
			<g>
				<g>
					<g>
						<g>
							<g>
								<g>
									<g>
										<circle style="fill:#80DBFF;" cx="256" cy="256" r="256"/>
									</g>
								</g>
							</g>
						</g>
					</g>
				</g>
			</g>
		</g>
	</g>
	<path style="fill:#4AB8F7;" d="M512,256c0-8.322-0.411-16.547-1.188-24.665l-81.83-81.83l-26.565,62.912L306,116l-16.912,123.755   L175,125.667L83.017,362.495l148.318,148.318C239.453,511.589,247.678,512,256,512C397.385,512,512,397.385,512,256z"/>
	<g>
		<rect x="97.667" y="125.667" style="fill:#2C4054;" width="77.333" height="33.333"/>
	</g>
	<g>
		<polygon style="fill:#576F87;" points="326,159 186,159 206,116 306,116   "/>
	</g>
	<g>
		<polygon style="fill:#495F7A;" points="306,116 255.629,116 255.629,159 326,159   "/>
	</g>
	<g>
		<rect x="83.017" y="149.505" style="fill:#495F7A;" width="345.965" height="212.989"/>
	</g>
	<g>
		<rect x="255.629" y="149.505" style="fill:#385068;" width="173.354" height="212.989"/>
	</g>
	<g>
		<rect x="83.017" y="203.437" style="fill:#576F87;" width="345.965" height="105.125"/>
	</g>
	<g>
		<rect x="255.629" y="203.438" style="fill:#56718C;" width="173.354" height="105.125"/>
	</g>
	<g>
		<circle style="fill:#2C4054;" cx="331" cy="256" r="103"/>
	</g>
	<g>
		<path style="fill:#253644;" d="M331,153c-0.174,0-0.347,0.006-0.521,0.007v205.987c0.174,0.001,0.347,0.007,0.521,0.007    c56.885,0,103-46.115,103-103S387.885,153,331,153z"/>
	</g>
	<g>
		<circle style="fill:#495F7A;" cx="331" cy="256" r="58.5"/>
	</g>
	<g>
		<path style="fill:#385068;" d="M331,197.5c-0.175,0-0.347,0.012-0.521,0.013v116.974c0.174,0.002,0.346,0.013,0.521,0.013    c32.309,0,58.5-26.191,58.5-58.5S363.309,197.5,331,197.5z"/>
	</g>
	<g>
		<circle style="fill:#FFFFFF;" cx="321" cy="243" r="18"/>
	</g>
	<g>
		<path style="fill:#DCE1EB;" d="M339,243c0-6.458-3.412-12.105-8.521-15.281v30.563C335.588,255.105,339,249.458,339,243z"/>
	</g>
	<g>
		<circle style="fill:#FFFFFF;" cx="293.417" cy="215.417" r="9.324"/>
	</g>
</g>















</svg>
